# xmcd
#
# Track frame offsets: 
#        180
#        2181
#        17179
#        43521
#        58379
#        72974
#        88840
#        103379
#        116652
#        128835
#        139807
#        149826
#        157223
#        173348
#        181216
#        195583
#        205051
#        214294
#        227933
#        238488
#        254823
#        266302
#        277081
#        287904
#        299846
#        319055
#        330604
#
# Disc length: 4442 seconds
#
# Revision: 0
# Processed by: cddbd v1.5.2PL0 Copyright (c) Steve Scherf et al.
# Submitted via: ExactAudioCopy v0.95b3
#
DISCID=c511581b
DTITLE=Johnny Cash - The Golden Unplugged Album
DYEAR=1900
DGENRE=Country
TTITLE0='Cause I Love You (Instr.)
TTITLE1=Casey's Last Ride
TTITLE2=Down There By The Train
TTITLE3=Just The Other Side Of Nowhere
TTITLE4=Long Black Veil
TTITLE5=Where We'll Never Grow Old
TTITLE6=Let The Lower Light Be Burning
TTITLE7=If I Give My Soul
TTITLE8=No Earthly Good
TTITLE9=In The Sweet By And By
TTITLE10=When He Reached Down
TTITLE11=Hungry
TTITLE12=Face Of Despair
TTITLE13='Cause I Love You
TTITLE14=The World's Gonna Fall On You
TTITLE15=Amazing Grace (Full Length Version)
TTITLE16=Thirteen
TTITLE17=Death And Hell
TTITLE18=Della's Gone
TTITLE19=Bird On A Wire
TTITLE20=Tennessee Stud
TTITLE21=Drive On
TTITLE22=The Next Time I'm In Town
TTITLE23=The Wonder Of You
TTITLE24=To Beat The Devil
TTITLE25=East Virginia Blues
TTITLE26=Ode To The Inspector
EXTD=
EXTT0=
EXTT1=
EXTT2=
EXTT3=
EXTT4=
EXTT5=
EXTT6=
EXTT7=
EXTT8=
EXTT9=
EXTT10=
EXTT11=
EXTT12=
EXTT13=
EXTT14=
EXTT15=
EXTT16=
EXTT17=
EXTT18=
EXTT19=
EXTT20=
EXTT21=
EXTT22=
EXTT23=
EXTT24=
EXTT25=
EXTT26=
PLAYORDER=
